<svg width="32" height="32" viewBox="0 0 32 32" fill="none" xmlns="http://www.w3.org/2000/svg">
<g clip-path="url(#clip0_1239_14844)">
<rect width="32" height="32" rx="16" fill="#EAD1FF"/>
<path d="M14.9439 7.95931C15.279 7.93178 15.6776 7.95212 16.02 7.95931C16.7585 7.97487 17.1044 8.01556 17.8143 8.1987C18.7264 8.43331 19.575 8.82592 20.3255 9.39449C21.5405 10.315 22.6369 11.828 22.9673 13.3302C23.3335 13.4211 23.6807 13.2392 24.0326 13.2225C24.0721 13.2201 24.1128 13.2236 24.1523 13.2225C24.4276 13.2117 24.7149 13.2105 24.989 13.2225C25.8592 13.2596 26.5582 13.3996 27.3806 13.7012C27.4979 13.7443 27.6415 13.779 27.7397 13.8209C27.9826 13.9251 28.3477 14.1489 28.5763 14.2997C32.2283 16.7021 33.5881 22.432 30.373 25.7273V25.9009C30.7189 26.0781 31.2899 26.5126 31.5712 26.7951C32.3253 27.5515 32.378 28.4433 33.7282 28.1237C35.8349 27.6246 35.5739 24.7949 36.3041 23.2843C36.5973 22.6786 37.3251 21.7139 38.0241 21.5954C38.7232 21.4769 39.6006 21.9628 39.7406 21.9353C39.9752 21.8898 40.7796 21.2327 40.7748 20.8784C41.2321 20.9167 41.6295 20.7575 42.0903 20.7587C42.3572 20.7587 42.5571 20.8089 42.8085 20.8784C43.3926 21.04 43.966 21.3967 44.0976 22.0418C44.1635 22.3686 44.0534 22.7373 44.185 23.0305C44.2724 23.2245 44.6507 23.3789 44.8242 23.5883C45.8752 24.8559 45.0098 26.8513 43.5267 27.2188C42.7905 27.4007 41.9945 27.4582 41.4272 26.8669C41.3111 26.746 40.9364 26.0481 40.8933 26.0242C40.8454 25.9979 39.9297 26.4419 40.2577 26.7161C40.7353 27.6521 41.0872 28.6468 41.4942 29.6128C40.2529 32.1384 37.5561 34.1062 34.7217 34.3827C33.9759 34.4558 32.603 34.2487 32.0117 34.4234C31.7962 34.4869 31.2935 35.2386 31.0326 35.478C29.3723 37.0089 26.8802 37.4482 24.752 36.7911C24.6466 38.1568 23.9284 39.3359 23.1923 40.4407C25.8951 43.2787 23.2725 47.139 19.8743 47.5256C19.2255 47.5783 17.7795 47.7351 17.2732 48.1541C16.6053 48.7047 16.9788 49.7018 16.8064 50.4391C16.5478 51.5415 15.1701 52.4967 14.1072 52.7038L13.9288 52.5853L13.8678 52.7038C13.4632 52.7217 12.3404 52.784 12.0328 52.7098C11.3649 52.5494 13.0826 50.9777 13.2011 50.7802C14.1395 49.2134 12.7761 48.5933 12.6792 47.2432C12.6193 46.41 13.0574 45.7744 13.6894 45.2873C13.9025 45.1221 14.4842 44.9856 14.5704 44.7259C14.6758 44.4075 14.3035 43.4296 14.3586 42.8466C14.4136 42.2637 15.0432 41.7909 15.1833 41.2199C12.4901 40.5592 10.6503 38.5806 9.61491 36.0777C9.44853 36.0382 7.46273 37.3106 7.43041 37.4662C7.39689 37.8588 7.76916 37.8887 7.95229 38.0994C9.62329 40.0313 10.8286 41.287 10.9974 43.9694L10.8777 44.2088C10.8502 44.2303 10.77 44.6744 10.6395 44.8683C10.1871 45.541 9.56224 45.7768 8.77941 45.7709C8.47657 45.7685 8.07558 45.6045 7.85534 45.6619C7.63509 45.7194 7.09286 46.3167 6.73975 46.4699C6.14245 46.7296 5.46017 46.8134 4.90238 46.4172C4.67255 46.2532 4.48583 45.8187 4.34099 45.7768C4.08723 45.7038 3.39657 46.0498 2.98481 45.9528C2.21395 45.7709 1.90393 44.7438 1.92069 44.0412C1.93026 43.6426 2.40187 42.4911 2.37195 42.363C2.3504 42.2721 1.60708 41.7203 1.48379 41.5814C0.909234 40.9362 0.461562 40.2408 0.276029 39.3885C0.0138897 38.1832 -0.197977 36.6283 0.307151 35.46C0.551336 34.8963 0.881704 34.3827 1.28389 33.9183C2.1146 32.9595 3.18351 32.2186 4.30269 31.6345C4.76592 31.3927 5.24471 31.176 5.73308 30.9881C3.25533 29.4512 1.9961 27.299 2.02842 24.3484C2.04876 22.4548 2.60057 20.9095 3.8203 19.5018C5.04003 18.0942 6.72419 17.3915 8.48735 17.1701C8.25393 15.4285 8.23359 13.6402 9.04035 12.041C9.29172 11.5419 10.0207 10.5089 10.4001 10.1115C10.5354 9.97024 10.9424 9.64705 11.1183 9.51299C11.6629 9.09883 12.6277 8.54702 13.2717 8.3172C13.3842 8.27651 13.5159 8.22982 13.6308 8.1975C13.9767 8.09935 14.586 7.98803 14.9463 7.95811L14.9439 7.95931ZM19.1656 22.8283C18.9993 23.0317 18.9346 23.5297 19.0699 23.7535C19.3177 24.1593 20.5769 24.1138 21.0413 24.4143C21.6817 24.8284 22.0468 26.6885 22.6537 26.6299C23.3168 26.5664 23.239 25.0403 23.3455 24.5591C23.6005 23.416 24.2935 23.489 24.9926 22.857C26.5367 21.4577 23.6675 21.8587 23.0307 21.4685C22.3939 21.0783 22.1054 18.9692 21.3621 19.108C20.6188 19.2469 20.9372 21.3177 20.45 21.9904C20.2022 22.3327 19.3631 22.5889 19.1656 22.8306V22.8283ZM14.3035 21.0423C13.1807 20.0321 13.4465 22.3423 13.389 22.8534C13.2238 24.3209 11.4595 24.3592 11.4774 25.1301C11.4942 25.8542 13.2382 25.6029 13.7457 25.9655C14.0952 26.2157 15.0648 28.9784 15.6298 27.7263C15.9075 27.1099 15.765 26.1762 16.1576 25.5035C16.5203 24.8823 17.9459 24.4394 17.9316 23.8074C17.9172 23.185 16.4724 23.2113 16.0403 23.0724C14.8625 22.6918 14.9942 21.666 14.3023 21.0423H14.3035ZM16.9405 26.7651C15.8165 27.1135 17.181 28.9532 17.7544 29.3746C19.2901 30.5009 22.5052 29.991 22.3341 27.7945C22.1832 25.8626 20.8833 27.2966 19.7929 27.3469C18.7323 27.3959 17.5401 26.5808 16.9405 26.7663V26.7651Z" fill="#D294FF"/>
<path d="M19.1629 22.8284C19.3604 22.5878 20.1995 22.3305 20.4473 21.9881C20.9333 21.3142 20.6304 19.2411 21.3594 19.1058C22.0883 18.9705 22.4223 21.0952 23.028 21.4663C23.6648 21.8565 26.5339 21.4567 24.9898 22.8548C24.292 23.4868 23.5977 23.4149 23.3428 24.5569C23.2351 25.038 23.3141 26.5642 22.6509 26.6276C22.0441 26.6863 21.679 24.8262 21.0386 24.412C20.5754 24.1116 19.3149 24.1583 19.0672 23.7513C18.9319 23.5287 18.9965 23.0295 19.1629 22.826V22.8284Z" fill="white"/>
<path d="M14.2996 21.0418C14.9915 21.6643 14.8598 22.6901 16.0377 23.0719C16.4686 23.212 17.9145 23.1844 17.9289 23.8069C17.9433 24.4389 16.5176 24.8818 16.155 25.503C15.7623 26.1757 15.9048 27.1093 15.6271 27.7258C15.0621 28.9778 14.0926 26.2152 13.743 25.965C13.2355 25.6011 11.4927 25.8537 11.4747 25.1295C11.4568 24.3587 13.2211 24.3204 13.3863 22.8529C13.4438 22.3418 13.1781 20.0316 14.3008 21.0418H14.2996Z" fill="white"/>
<path d="M16.9373 26.7648C17.537 26.5793 18.7292 27.3944 19.7897 27.3454C20.8813 27.2951 22.1801 25.8611 22.3309 27.793C22.5021 29.9895 19.287 30.5006 17.7512 29.3731C17.1779 28.9517 15.8121 27.1119 16.9373 26.7636V26.7648Z" fill="#1D1D1C"/>
</g>
<rect x="0.6" y="0.6" width="30.8" height="30.8" rx="15.4" stroke="white" stroke-width="1.2"/>
<defs>
<clipPath id="clip0_1239_14844">
<rect width="32" height="32" rx="16" fill="white"/>
</clipPath>
</defs>
</svg>
